<svg id="Layer_1" data-name="Layer 1" xmlns="http://www.w3.org/2000/svg" viewBox="0 0 512 512"><defs><style>.cls-1{fill:#707070;}</style></defs><title>diary-handdrawn</title><path class="cls-1" d="M221.25,377.83c0,.15-.53.34.13.46,2.18.39,1.59.58-3,.59-5.93,0-12.25.32-17.69-.16-1.09-.1-2.35-.29-2.14-.41a45.64,45.64,0,0,1,4.63-2.15c.74-.31,2.59-.38,6-.34,8.17.12,16.46.2,24.69.19,7.47,0,14.62.9,11.7,1.62a13.67,13.67,0,0,1-1.76.17l-13.55.65c-1.24-.17-2.53-.42-4.46-.6C224.95,377.77,222.82,377.83,221.25,377.83Zm141,36.38c-3.33,0-5.51.31-4.66.82l-24,.21.51-.09c-1.19-.06-2.37-.18-3.57-.18q-12.14,0-24.29,0c-1.07,0-2.19,0-3.21,0-4.17-.09-5.36-.07-4.9.26.85.62-3.81.69-7,.84-8.55.42-17.76.63-26.94.87-7.32.2-15.11.17-22.12.49-1.35.06-3.12,0-4.69,0-6.46,0-12.62-.36-19.31-.15a23,23,0,0,1-3.44-.25,6,6,0,0,1-1.72-.76l-4.59-.12,1.46-.24c-3.74.07-6.91.17-10,.16s-6.14-.16-9.56-.25l-.58.37-7.51-.06,1.66-.12c-.1-.32-.93-.61,0-.81a49.65,49.65,0,0,1,5.58-.3c2.17,0,3.09,0,3.72-.29a50.82,50.82,0,0,1,5.12-.51c4.42-.41,3-1,3.25-1.47.1-.18-.14-.36-.26-.61l-3.68-.23,6.08-.34-.35.32c.94,0,2.35,0,2.73,0,2.93-.36,6.14-.72,8.34-1.13,2.95-.55-3.47-1.22-8.45-1.29-6.29-.08-12.72,0-19.09-.05-2.62,0-5.24,0-8-.11l12.78-.22s0-.1,0-.14c-1.41,0-2.83-.07-4.24-.07a42.1,42.1,0,0,1-6.59-.32,52.72,52.72,0,0,0-7.8-.25c-4.33.06-10.29.33-13.38-.25-1.16-.22-.19-.56-.19-.83H147.14l5.83-2.07-2.43-.14c7.23-.2,3.64-1.1,9.55-1.41l-5.74-.32c1.89-.28,4.12-.49,3-.94-.85-.36,2.72-.81,3.9-1.24.48-.17-.49-.38-.23-.56a3.12,3.12,0,0,1,2-.63c3.06-.1,4.49-.81,9.31-.3.42,0,1.59,0,2.27,0,7.87-.26,15.36-.15,23.18.1,5,.16,10.64.15,15.95.13,6.29,0,12.5-.21,18.78-.25,7.25,0,14.55,0,21.83,0,1.4,0,3,0,4.17-.07a159.68,159.68,0,0,1,21.77.29c2.35.23,6.68.24,10.11.35l-.34-.19a15.66,15.66,0,0,1,3.57-.68,85.41,85.41,0,0,1,11.15.19c2.65.23,7,.27,11,.41l-1.11.8c11.49.13,6.85,1,6.37,1.7,4.4-.08,8.41-.22,12.34-.2,6.14,0,12.67-.06,18,.43,1.19.11,4.21,0,6.13,0s3.53.23,5.27.35l-3.09.45c3.67.32,5.56.74,2.14,1.29-.78.13.1.35-.06.53-.44.47-2,1-9.19,1.09-3.76.06-8.15,1.12-6.83,1.62,1.92.73-3.63,1.42-11,1.38-4.07,0-8.17,0-12.23,0a12.94,12.94,0,0,0-2.38.3,105.08,105.08,0,0,1-14.25.75c-.86,0-2-.06-2.39-.13-2.93-.47-2.88-.47-7.16-.06,2.27.46,4.56.88,6.47,1.33.73.17.56.38.8.57-2.77,0-5.55,0-8.3,0-1,0-1.88-.16-2.76-.15q-17.18.11-34.35.24c-.48,0-.94,0-1.39.06.05,0,.08.11.14.11q13.7.08,27.41.14c2.8,0,5.61-.06,8.43-.07,5.57,0,7.16.16,6.44.91,3.09-.14,5.49-.25,8-.35,1.66-.06,3.39-.13,5.13-.15,8-.06,15.17-.36,22.22-.74,2.38-.13,5.59-.09,8.41-.13,4.41-.06,8.87-.09,13.21-.18,6.91-.15,9.6.12,8.28.81A18,18,0,0,0,362.29,414.21Zm-170-10.93a15.92,15.92,0,0,0-2.52-.37c-2.81,0-5.73,0-8.59,0-1.71,0-3.4.07-5.11.08-1,0-2-.06-3.07-.1l-.39.2,18.74.31Zm57,9a84.23,84.23,0,0,0-13.23.11l5.44,0,.13,0-4.06.15c2.73.08,4.3.19,5.24.14C245.18,412.6,247.21,412.43,249.35,412.28Zm-88.4,12.63c-1.18,0-2.84.07-3.75.17-5.64.59-3.15,1.61,3.9,2.05,7.5.48,15.53.24,23.28.35,2,0,4.17,0,6.26,0l.7-.18-19.65-1.83-1.21.1,1.2-.44C167.87,425.06,164.45,425,160.95,424.91Zm121.42,61.5,25.72-.17c38.68-.59,21.57-1.61-26.77-2.05l-79.17-.31H141.68c-7.37.06-11.66-.08-16.8-1.19A46.25,46.25,0,0,1,98,465.15a22.76,22.76,0,0,1-2.22-2.91,44.24,44.24,0,0,0,8.18,10,43,43,0,0,0,10.65,7.44,44.12,44.12,0,0,0,12.32,4.23l3.24.56,3.29.22,1.66.13,2.11,0,4.21.06,67.36.91,8.27-.1-8.26.44ZM160.95,376.52c-1.18,0-2.84.07-3.75.17-5.64.59-3.15,1.61,3.9,2.05,7.5.48,15.53.24,23.28.35,2,0,4.17,0,6.26,0l.7-.18-19.65-1.83-1.21.1,1.2-.44C167.87,376.67,164.45,376.57,160.95,376.52Zm108.67-2.59a21.11,21.11,0,0,0,5.94-.37,43.59,43.59,0,0,1,5.43-.93,46.49,46.49,0,0,1,5.09-.11c5.82.5,11.66.11,16.4.13-1.1-.37-2.14-.69-3-1s-1.76-.71-2.66-1.08c-3.15,0-7.13.14-10.48,0-4.86-.15-8.08.12-12,.26-5.9.2-12.05.33-18.71.51a22.9,22.9,0,0,0-2.26.63c-.29.12,0,.28.67.39,1.93.33,5.49.62,5.94,1C260.84,374,266.06,373.81,269.61,373.93Zm0,48.39a21.11,21.11,0,0,0,5.94-.37A43.59,43.59,0,0,1,281,421a46.49,46.49,0,0,1,5.09-.11c5.82.5,11.66.11,16.4.13-1.1-.37-2.14-.69-3-1s-1.76-.71-2.66-1.08c-3.15,0-7.13.14-10.48,0-4.86-.15-8.08.12-12,.26-5.9.2-12.05.33-18.71.51a22.9,22.9,0,0,0-2.26.63c-.29.12,0,.28.67.39,1.93.33,5.49.62,5.94,1C260.84,422.42,266.06,422.2,269.61,422.32Zm-43.78,3.92c1.93.18,3.23.43,4.46.6l13.55-.65a13.67,13.67,0,0,0,1.76-.17c2.93-.71-4.23-1.62-11.7-1.62-8.23,0-16.52-.08-24.69-.19-3.43,0-5.27,0-6,.34a45.64,45.64,0,0,0-4.63,2.15c-.22.12,1,.31,2.14.41,5.44.48,11.76.17,17.69.16,4.56,0,5.15-.2,3-.59-.65-.12-.12-.3-.13-.46C222.82,426.22,224.95,426.16,225.84,426.24ZM189.89,256.39l4.44.06,8.67.1c1.95,0,4.69-.07,6.19-.17,9.31-.59,5.19-1.61-6.44-2.05l-9.43-.24-2.39,0a19.34,19.34,0,0,1-2-.06,17.56,17.56,0,0,1-2.56-.29,15.78,15.78,0,0,1-8.78-5,17.48,17.48,0,0,1-3-4.58l-.36-.51A17,17,0,0,0,187,255.77a5.43,5.43,0,0,0,1.19,0,5.82,5.82,0,0,1-1.24.31A21.56,21.56,0,0,0,189.89,256.39ZM451.27,120c-.07,18.3-.17,48.13-.27,76.22l-.8-7.62c-.13,78.76-1,46.93-1.7,43.69.07,30.16.13,57.67.2,84.63,0,21.05,0,42.76,0,63.8,0,10.52-.08,20.86-.12,30.88q-.06,7.51-.11,14.75,0,3.61-.07,7.15c0,2.3,0,4.64-.25,7.49a71.09,71.09,0,0,1-18.76,44.71,69.76,69.76,0,0,1-36.26,20.77,68.09,68.09,0,0,0,22.47-10.07c-12.47,7.88-23.77,9.74-27.66,10-2,.19-2.23.12-.33-.3a74.17,74.17,0,0,0,12.29-3.45c5.72-2.23-.89,0,.29-.67,1.48-.9,5.3-2,13.94-7.65a72.45,72.45,0,0,0,15.3-14.05,69,69,0,0,0,13.95-30.41l.79-5.38.25-5.46c.11-3.59,0-6.61-.07-9.84-.16-6.3-.31-12.19-.44-17-.33-9.62-.72-14.89-1-10.36-.73,13.16-1.42-24.85-1.38-75.16,0-27.9,0-56,0-83.84,0-6-.18-12.46-.3-16.31-.42-14-.84-67.51-.75-97.71.17-5.75-.24-13.85-.87-16.82a58.57,58.57,0,0,0-7.18-20.91c-3.27-5.42-7.48-12.36-20.21-21.16,13.58,9.36,22.43,24.33,25.1,37.49,1.15,5,.43,3.94.59,5.64-2.84-19.23-15.77-36.54-33-45.16a58.23,58.23,0,0,0-18.26-6c-4.94-.9-10-.77-14.89-.81H342c0,.17.06.34.09.5h17.09c9.62.2,19.31-.67,29,1A59.46,59.46,0,0,1,421.54,81a27.68,27.68,0,0,1,4,5.16c.46.82.19.71-.69-.16a59.3,59.3,0,0,1,11.82,26.07c1.62,8.79,1,17.19,1.18,25.61,0,11.35.1,23.23.15,35.14.27,55,.51,104,.74,152.37,0,16.3.08,38.29.13,57.69,0,15.11.05,30.31.08,45.45,0,7.48.24,15.31-1.54,22.87a61.43,61.43,0,0,1-31.9,41.35,57,57,0,0,1-18.86,6c-9.57,1-12,.41-7.37,0,6.66-.72,10.06-2.18,15.23-4.12A58,58,0,0,0,417,481.33c4.15-4,5.22-6,3.22-4a57.75,57.75,0,0,0,15.38-36.5c.32-13.6.06-27.47.12-41.11,0-27.36-.07-54.54-.1-81.71l.09,3.49c.06-8.15.12-16.22.18-24.45q0-83.24,0-166.55c.09-7.42,0-14.82-1.73-21.45a54.48,54.48,0,0,0-6.44-16A39.57,39.57,0,0,0,424.31,88a33.72,33.72,0,0,0-2.85-3.55c-3.38-3.8-4.48-4.4-3.44-3.28s.21.55-1.66-1a60.1,60.1,0,0,0-9.06-6.57c-8.14-5.24-20.92-8.8-31.7-8.37l-33.11.16c.05.93.09,1.85.1,2.77h0l36.22.12a54.3,54.3,0,0,1,30,10.06,53.39,53.39,0,0,1,10.94,12.12A52.55,52.55,0,0,1,427.31,107,53.11,53.11,0,0,0,396.53,74.1a50.58,50.58,0,0,0-12.12-3.19,48.3,48.3,0,0,0-6.36-.54c-2.14-.12-4.83,0-7.23-.08l-28.21-.22c0,.9,0,1.79,0,2.67l-.09-1.06-.18,7.41C343,87.61,340,97,333.75,103.32c-6.11,6.48-15.43,9.69-24,9.18h-6.66c-8.67-.09-11.13-.07-10.18.26,1.77.62-7.9.69-14.63.84l-55.93.87-23.32.15a33.09,33.09,0,0,1-23-10.19,31,31,0,0,1-6.11-9.26,32.24,32.24,0,0,1-2.54-11.06c-.16-3.78,0-6.73,0-10.14s-.06-6.36.24-10.39a34.32,34.32,0,0,1,3.19-11.16,26,26,0,0,1,4.67-6.61,12.83,12.83,0,0,1,3.33-2.32,30.93,30.93,0,0,1,8.84-5.57c-.8.47-1.49.81-2.87,1.69A30.84,30.84,0,0,1,196,35.83a85.16,85.16,0,0,1,10.27-.34c2.31-.05,4.44.17,6.57-.06a42.86,42.86,0,0,1,2.64-3.79,58.19,58.19,0,0,1,4.08-4.6c.22-.44.39-.75.64-1.16a51.37,51.37,0,0,1,13.45-9.45c-1.77,1-2.79,1.59-3.17,1.82.36.17,2.08-.45.43.69a69.86,69.86,0,0,0-9.38,7.45c-3.29,3.24-4.5,5-5,6.05-.21.51-1.5,2.4-2.74,4.68a28.2,28.2,0,0,1-4.38.34c-8.86.41-6.07,1-6.58,1.47-.2.18.3.36.54.61l8.09.23c-5.57.17-8.82.14-13,.42l.68-.36a23,23,0,0,0-5.31.7,25.41,25.41,0,0,0-13.06,9c-3.19,4.71,4.58-5.32,13.8-6.67a41.16,41.16,0,0,1,9.39-.59h5.89c2.2,0,4.53.12,6.64-.11,4.67-7.8,8-11.24,12.67-14.95a41.71,41.71,0,0,1,13.49-6.92,44.22,44.22,0,0,0-19.84,13.36l.12.08a49.49,49.49,0,0,1,5.81-5.48,33.61,33.61,0,0,1,10.75-6,56.17,56.17,0,0,1,14.15-3,43.22,43.22,0,0,1,13.21,1.17A31.3,31.3,0,0,1,277.3,25.1c1.73,1.28,0,.63-.12.89a42.81,42.81,0,0,1,15.35,15.4,40.47,40.47,0,0,0-7.87-6.95c-.08-.05,1.46,1.57,2.65,3.23-4.05-4.73-5.7-5.25-6.78-5.89s-2.05-1-6.38-3.31a38.58,38.58,0,0,1,7.53,5.7c-2.49-1.89-5.61-3.71-4.42-2.33.94,1-4-1.73-5.92-2-.74-.15.52.66.08.66a8,8,0,0,1-3-.61c-4.36-1.38-6.5-1.42-13.63-1.94a22.87,22.87,0,0,0-3.36.24,36.72,36.72,0,0,0-14.48,5.66,37.42,37.42,0,0,0-6,5c-.44.48-.92.92-1.32,1.45L229,41l-.32.37c-.61.82-.6.89-.93,1.37-2,3.06-4,6.14-6,9.24L213.57,52l-11.35-.09-2.05,0-1.17.06a14.39,14.39,0,0,0-2.19.27,15.06,15.06,0,0,0-7.62,4.26,14.86,14.86,0,0,0-4.08,9.15l0,1.28v2.37l0,4.87,0,4.88c0,1.56,0,3.57.08,4.08a14.95,14.95,0,0,0,10,13.19,14.52,14.52,0,0,0,2.84.66,28.67,28.67,0,0,0,3.91.15l8.66-.07c14.64-.42,33.56-.26,45.21.29,4.88.23,13.87.24,21,.35l-.71-.19a64.52,64.52,0,0,1,7.41-.68c7.47-.16,15.41-.14,23.16.19l4.71.14a19.29,19.29,0,0,0,3.24-.16,14.54,14.54,0,0,0,6.09-2.36,9.91,9.91,0,0,1-.62,1.34,18,18,0,0,0,5.18-4.49c.83-1.1,1.27-1.52,1.44-1.57.45-.07,0,1.46.1,1.93a17.87,17.87,0,0,0,2.59-7.56c.07-.65,0-1.3.1-1.94V79.23c0-2.07,0-4.12,0-6.17,0-3.15.06-6.84-.15-8.28a16.67,16.67,0,0,0-1.66-5.6,19.39,19.39,0,0,0-7.44-8.12c-1.28-.95-5.1-2-7.61-2l-10.58-.4,6.41-.45c-7.62-.32-11.55-.74-4.44-1.29,1.63-.13-.22-.35.13-.53s1.49-.48,4.27-.68c3.19-.09,6.51-.81,11.84,1.23,5.62,1.91,10.74,7.36,9.77,5.31-.83-1.43.63-.68,2.77,2.28a20,20,0,0,1,2.92,6.16,29,29,0,0,1,.94,9.41c0,4.2,0,8.41,0,12.62a25,25,0,0,1-2.57,10.51c-.69,1.41-1.44,2.93-2,3.79a22.55,22.55,0,0,1-8.23,7.8,24.47,24.47,0,0,1-7.32,2.66,34.15,34.15,0,0,1-7.34.44c-1.79,0-4.07-.06-5-.13-6.09-.47-6-.47-14.87-.06l13.43,1.33c1.51.17,1.17.38,1.67.57H287.27l-5.73-.15-71.32.24-2.9.06c.11,0,.16.11.29.11l56.92.14L282,110c11.56,0,14.86.16,13.37.91l16.51-.35a30.17,30.17,0,0,0,10.23-2A27.53,27.53,0,0,0,338,92.35c2.74-7,1.37-14.48,1.44-21.8,0-.15,0-.32,0-.47h-1.83c0-.65.07-1.3.08-2h1.72c0-.9-.08-1.8-.16-2.75h-1.62c-.06-1.26-.18-2.51-.35-3.76h1.45c0-.17-.09-.34-.12-.5h-1.39a39.45,39.45,0,0,0-3-10.05,27.17,27.17,0,0,0-18.66-11c-13.94-.36-19.82-.26-17-1.07a50.08,50.08,0,0,0,4.78-1.61c6.86-.1,11.5-.23,9.74-.77a30.32,30.32,0,0,1,23,11.63c.21.27.38.56.58.84l34.35.17-2.34-.19,5.4-.19c1.65-.08,3.29-.16,5.63-.08a63.39,63.39,0,0,1,16.94,2.29A73.53,73.53,0,0,1,451.27,120ZM226.21,38.47c.95-1,1.93-1.7,3-2.84a39.87,39.87,0,0,1,11.46-7.91,38.82,38.82,0,0,1,7.88-2.59,37.34,37.34,0,0,1,5-.56l.63-.22a38.28,38.28,0,0,0-27.12,12.82ZM192,108.63a33.64,33.64,0,0,1-9.56-5.43,29.91,29.91,0,0,1-7.06-8.65,28.52,28.52,0,0,0,3.69,5.7l.13.22a26.52,26.52,0,0,1-4.55-6.76,26.47,26.47,0,0,0,6,8.7A27.46,27.46,0,0,0,192,108.63ZM88.31,114c.35-1.85.88-3.77,1.29-5.43l1.26-3.72c1.49-3.66,1.61-4.25.54-2.48s-3.1,6-4.46,12.42a33.66,33.66,0,0,0-.7,5.17L86,122.77q0,1.78-.06,3.64c-.05,5-.11,10.47-.17,16.21,0,11.49-.1,24.15-.15,37-.06,56.43-.13,113.29-.19,169.3,0,23.49,0,36.12.34,41.23.71,11.86,1.43,22.83,2.15,31.74.12,1.48.31-7.17.41-14.64.48-37.32.17-80.64.16-121.29,0-31.26-.2-35.32-.59-20.34-.12,4.49-.3.81-.46.86,0-10.76,0-25.36,0-31.48.26-13.23.44-22.13.6-30.6-.11-16-.22-31.67-.33-47.1q-.08-11.57-.16-23l-.07-11.38.19-4.48ZM258.75,1.9l-3.12.37a60.47,60.47,0,0,1,26.72,6.32,79.7,79.7,0,0,1,8.38,4.8c6,4.08,7.58,5.52,6.37,3.73-1.32-1.62-5.74-6.35-14.15-10.7-17.88-9.53-42-8.35-59.74,2.83A61.75,61.75,0,0,0,210.3,19.87l-1.13,1.48A61.55,61.55,0,0,1,255.62,1.92C256.66,1.87,257.7,1.91,258.75,1.9ZM377,504.2l-40,2.07,16.63.14c-49.55.2-25,1.1-65.5,1.41l39.34.32c-12.93.28-28.24.49-20.74.94,5.86.36-18.62.81-26.71,1.24-3.26.17,3.37.38,1.58.56a119.79,119.79,0,0,1-13.73.63c-21,.1-30.8.81-63.84.3l-15.56,0-40.06.13c-6.81-.07-12.52.27-21.26-.41A75.66,75.66,0,0,1,103.84,505,74.4,74.4,0,0,1,69.3,472.18a72.84,72.84,0,0,1-7.55-23.09A82.3,82.3,0,0,1,60.82,437l0-10c0-34,.09-72.95.13-109.35-.08-43.1-.16-85.69-.25-128.78q0-18.65,0-37.35V123.45a82.34,82.34,0,0,1,.87-11.33A73.73,73.73,0,0,1,81.55,71.48,78.26,78.26,0,0,1,99.75,57.6,77.67,77.67,0,0,1,121.38,50a70,70,0,0,1,9-1.09l4.64-.22h3.76l13.62-.06,9.2-.07A42.88,42.88,0,0,1,180.2,29.11a40.56,40.56,0,0,1,13-4.27,42.52,42.52,0,0,1,6.59-.49l4.39.14,1.71.09.78.05,0,.05a.47.47,0,0,1,.08.21c-.09.18.12.36-.3.54l-2.34.54-5.53,1.13c-2,.51-7.64.3-16.55,4.61A39.28,39.28,0,0,0,165,48.53h.31a39.59,39.59,0,0,0-3.75,12.8h-.76l0,.19h.76a42.42,42.42,0,0,0-.3,4.66h-.86c0,.41-.06.87-.06,1.25v1.48h1c0,.65.1,1.3.17,2l-1.19-.07v3.08c.12,4.38-.36,8,.51,14.54a42.82,42.82,0,0,0,13,24.4c2.52,2.35,4.57,3.81,5.44,4.52s.51.76-1.45-.24a32.63,32.63,0,0,1-4.38-3,42.52,42.52,0,0,1-12.09-15.89,42,42,0,0,1-2.88-9.92,39.22,39.22,0,0,1-.53-5.21l-.12-3.9c.16-2.38.39-4.92.56-8.48-3.08-.11-7.83-.21-13.2-.32-3.93,0-8.78-.28-12.33-.11a50.17,50.17,0,0,0-10,1.11c-3.67.74-5.63,1.38-4,.66,3.52-1.32,10.18-3,13.41-3l26.19-.13c0-.28,0-.49,0-.81s0-.75,0-1.16l0-.76-5.66,0c-6.37,0-12.92,0-19.16.12A54.56,54.56,0,0,0,116,69.63a56.8,56.8,0,0,0-27.73,21.5,60.22,60.22,0,0,0-7.37,15.72,61,61,0,0,0-2.26,16.88c0,9.27,0,21.37,0,32.18,0,44.3-.1,86.53-.15,132.42,0,5.93-.13,20.22-.25,23.6-.22,6.45-.48,7.84-.76,11.79,0,8.75-.07,19.13-.12,31.46l-.24-10c.06,25.62.11,47.4.16,68.79,0,5.32,0,10.61,0,15.92s-.17,10.59.56,15.64A57.72,57.72,0,0,0,90.5,474.58l2.84,2.58a58.06,58.06,0,0,0,44.14,18,75.88,75.88,0,0,1-10.92-.56c.69.43,5.91,1.5-.09.79a55,55,0,0,1-14.77-3.95,57.69,57.69,0,0,1-18-12.07c-10-10.54-11.8-16.88-13.74-20.49a50.3,50.3,0,0,1-3.69-13.26c-1-6.6-.7-14.66-.86-20.82-.41-30.33-1-20.35-1.47-22.26-.18-.67-.36,1-.61,1.8,0,1.89-.09,10.21-.23,25.21-.13-16.25-.22-27.52-.34-41.71l.32,2.43c0-6.42,0-16.12,0-18.7l-1.13-57.2c-.55-20.21-1.23,23.81-1.29,57.93,0,21.56,0,43.36-.05,65.23a64.37,64.37,0,0,0,62,64.39c9.41.25,18.44.1,28,.21l-21.9.06c-7.28.11-15.51-.48-22.88-2.85a65.22,65.22,0,0,1-36.14-28.23l-.09.13a63.41,63.41,0,0,0,21.85,21.9A64.82,64.82,0,0,0,126.91,502c8.15.91,14.46.59,20.43.83,10.94.26,28.92.3,53.5.25,29.68-.06,70.57-.33,91.71.25,7.94.22,1.29.56,1.29.83ZM141.41,61.39a6.14,6.14,0,0,0,.95.11h16.48c0-.06,0-.13,0-.19h-.8s0,0,0,0h-7Zm-68,75.9c.07,8.88.15,18,.22,27.18,0-13.85,0-25.58,0-37.31l0-.86c0,5.66.06,11.33.15,27.83.19-18.72-.06-29.42.39-36A61.43,61.43,0,0,1,92.82,78.29c-6.45,5.62-15.42,17.19-18.43,33.38C72.82,119.77,73.49,128.47,73.41,137.3ZM202.12,508.2,137.87,508c-2.49.05-5.79-.14-8.88-.32a80.24,80.24,0,0,1-9.24-1.43,72.67,72.67,0,0,1-17.52-6.46,70.52,70.52,0,0,1-26.95-25.26,51.25,51.25,0,0,1-3.73-6.46A62.64,62.64,0,0,0,82.51,485a69.17,69.17,0,0,0,28.17,19,72.18,72.18,0,0,0,16.86,4c2.8.19,5.93.36,8.48.39h7.38l35-.08,21,.1Zm19.59-340.31c1-.17,2.34-.33,3.86-.49a22.23,22.23,0,0,1,3.84-.11,16.26,16.26,0,0,1,6,1.74c6.35,3.38,11,9.5,12.25,15.2a29.83,29.83,0,0,0-.2-3.93,31.7,31.7,0,0,0-.66-3.58,25.56,25.56,0,0,0-10.28-9.3c-6-3-10-2.38-16.9-2.24l-30.71.54a13,13,0,0,0-2.84.88c-.34.17.11.27.88.25,1.87.09,8.4.5,9,.81,1.52.7,10.13.48,16,.6A57,57,0,0,0,221.71,167.89Zm-49.4,21.73.23-1.13a10.56,10.56,0,0,1,.5-1.77,17.06,17.06,0,0,1,5.76-10.87l1.27-1.11c1.06-1-.11-1-2.2.24a15.56,15.56,0,0,0-6.26,7.72,18,18,0,0,0-1.25,6.3l-.08,9.92c0,6.8-.1,13.59-.14,20.34,0,5.66,0,8.69.34,9.92.71,2.86,1.43,5.5,2.15,7.64.12.36.31-1.73.41-3.52.48-9,.17-19.41.16-29.19,0-7.52-.2-8.5-.59-4.9-.12,1.08-.3.2-.46.21,0-2.59-.06-6.1,0-7.58Zm164.41-31.83a24.78,24.78,0,0,0,3.37.35L340,158c.38-.24.59-.6,1.19-.68a9.6,9.6,0,0,1,3.72.19,31.36,31.36,0,0,0,3.68.41l-.37.8c3.83.13,2.28,1,2.12,1.7,1.47-.08,2.8-.22,4.11-.2a25.48,25.48,0,0,1,6,.43c.4.11,1.41,0,2,0a15.44,15.44,0,0,1,1.76.35l-1,.45c1.22.32,1.85.74.71,1.29-.26.13,0,.35,0,.53-.15.47-.66,1-3.06,1.09-1.25.06-2.72,1.12-2.28,1.62.64.73-1.21,1.42-3.65,1.38-1.36,0-2.72,0-4.08,0a1.75,1.75,0,0,0-.79.3,12.21,12.21,0,0,1-4.75.75,3,3,0,0,1-.79-.13c-1-.47-1-.47-2.39-.06.76.46,1.52.88,2.16,1.33.24.17.19.38.27.57-.92,0-1.85,0-2.77,0-.32,0-.62-.16-.92-.15q-5.73.11-11.45.24a4.07,4.07,0,0,0-.46.06s0,.11,0,.11c3,.05,6.09.11,9.14.14.93,0,1.87-.06,2.81-.07,1.86,0,2.39.16,2.15.91,1-.14,1.83-.25,2.65-.35.55-.06,1.13-.13,1.71-.15a53.25,53.25,0,0,0,7.41-.74,27.44,27.44,0,0,1,2.8-.13c1.47-.06,3-.09,4.4-.18,2.3-.15,3.2.12,2.76.81a14,14,0,0,0-.77,1.61c-1.11,0-1.84.31-1.55.82l-8,.21.17-.09a7.83,7.83,0,0,0-1.19-.18c-2.7,0-5.4,0-8.1,0-.36,0-.73,0-1.07,0-1.39-.09-1.79-.07-1.63.26.28.62-1.27.69-2.35.84-2.85.42-5.92.63-9,.87-2.44.2-5,.17-7.37.49a13.77,13.77,0,0,1-1.56,0c-2.15,0-4.21-.36-6.44-.15a2.76,2.76,0,0,1-1.15-.25,2.35,2.35,0,0,1-.57-.76l-1.53-.12.49-.24c-1.25.07-2.3.17-3.34.16s-2-.16-3.19-.25l-.19.37-2.5-.06.55-.12c0-.32-.31-.61,0-.81a5.76,5.76,0,0,1,1.86-.3c.72,0,1,0,1.24-.29a6.4,6.4,0,0,1,1.71-.51c1.47-.41,1-1,1.08-1.47a2.09,2.09,0,0,0-.09-.61l-1.23-.23,2-.34-.12.32a5.52,5.52,0,0,0,.91,0,22.54,22.54,0,0,0,2.78-1.13c1-.55-1.16-1.22-2.82-1.29-2.1-.08-4.24,0-6.36-.05a24.37,24.37,0,0,1-2.67-.11l4.26-.22s0-.1,0-.14c-.47,0-.94-.07-1.41-.07a4.89,4.89,0,0,1-2.2-.32,6,6,0,0,0-2.6-.25c-1.44.06-3.43.33-4.46-.25-.39-.22-.06-.56-.06-.83h-4l1.94-2.07-.81-.14c2.41-.2,1.21-1.1,3.18-1.41l-1.91-.32c.63-.28,1.37-.49,1-.94s.9-.81,1.3-1.24c.16-.17-.16-.38-.08-.56s.26-.59.67-.63c1-.1,1.5-.81,3.1-.3a2.81,2.81,0,0,0,.76,0,38.8,38.8,0,0,1,7.73.1,49.1,49.1,0,0,0,5.32.13c2.1,0,4.17-.21,6.26-.25,2.42,0,4.85,0,7.28,0a8.81,8.81,0,0,0,1.39-.07A18,18,0,0,1,336.72,157.79Zm-29.34,3.52a2.26,2.26,0,0,0-.84-.37c-.94,0-1.91,0-2.86,0-.57,0-1.13.07-1.7.08a9.64,9.64,0,0,1-1-.1l-.13.2,6.25.31Zm19,9a9.48,9.48,0,0,0-4.41.11l1.81,0,0,0-1.35.15a13,13,0,0,0,1.75.14C325,170.63,325.68,170.46,326.39,170.32Zm-7.84,62.35a10.06,10.06,0,0,1,1.49.6l4.52-.65a1.71,1.71,0,0,0,.59-.17c1-.71-1.41-1.62-3.9-1.62-2.74,0-5.51-.08-8.23-.19-1.14,0-1.76,0-2,.34a19.14,19.14,0,0,0-1.54,2.15c-.07.12.35.31.71.41,1.81.48,3.92.17,5.9.16,1.52,0,1.72-.2,1-.59-.22-.12,0-.3,0-.46A9.52,9.52,0,0,1,318.55,232.67Zm0-48.39a10.06,10.06,0,0,1,1.49.6l4.52-.65a1.71,1.71,0,0,0,.59-.17c1-.71-1.41-1.62-3.9-1.62-2.74,0-5.51-.08-8.23-.19-1.14,0-1.76,0-2,.34a19.14,19.14,0,0,0-1.54,2.15c-.07.12.35.31.71.41,1.81.48,3.92.17,5.9.16,1.52,0,1.72-.2,1-.59-.22-.12,0-.3,0-.46A9.52,9.52,0,0,1,318.55,184.28Zm23.65,41.1a33.56,33.56,0,0,1-3.49,0,17.94,17.94,0,0,0-4,.26c-2,.2-4,.33-6.24.51a5,5,0,0,0-.75.63c-.1.12,0,.28.22.39.64.33,1.83.62,2,1,.31.7,2,.48,3.23.6a2.58,2.58,0,0,0,2-.37,6.67,6.67,0,0,1,1.81-.93,5.23,5.23,0,0,1,1.7-.11c1.94.5,3.89.11,5.47.13-.37-.37-.71-.69-1-1S342.5,225.74,342.2,225.38Zm-49.88-11.82,1.94-2.07-.81-.14c2.41-.2,1.21-1.1,3.18-1.41l-1.91-.32c.63-.28,1.37-.49,1-.94s.9-.81,1.3-1.24c.16-.17-.16-.38-.08-.56s.26-.59.67-.63c1-.1,1.5-.81,3.1-.3a2.81,2.81,0,0,0,.76,0,38.8,38.8,0,0,1,7.73.1,49.1,49.1,0,0,0,5.32.13c2.1,0,4.17-.21,6.26-.25,2.42,0,4.85,0,7.28,0a8.81,8.81,0,0,0,1.39-.07,18,18,0,0,1,7.26.29,24.78,24.78,0,0,0,3.37.35l-.11-.19c.38-.24.59-.6,1.19-.68a9.6,9.6,0,0,1,3.72.19,31.36,31.36,0,0,0,3.68.41l-.37.8c3.83.13,2.28,1,2.12,1.7,1.47-.08,2.8-.22,4.11-.2a25.48,25.48,0,0,1,6,.43c.4.11,1.41,0,2,0a15.44,15.44,0,0,1,1.76.35l-1,.45c1.22.32,1.85.74.71,1.29-.26.13,0,.35,0,.53-.15.47-.66,1-3.06,1.09-1.25.06-2.72,1.12-2.28,1.62.64.73-1.21,1.42-3.65,1.38-1.36,0-2.72,0-4.08,0a1.75,1.75,0,0,0-.79.3,12.21,12.21,0,0,1-4.75.75,3,3,0,0,1-.79-.13c-1-.47-1-.47-2.39-.06.76.46,1.52.88,2.16,1.33.24.17.19.38.27.57-.92,0-1.85,0-2.77,0-.32,0-.62-.16-.92-.15q-5.73.11-11.45.24a4.07,4.07,0,0,0-.46.06s0,.11,0,.11c3,.05,6.09.11,9.14.14.93,0,1.87-.06,2.81-.07,1.86,0,2.39.16,2.15.91,1-.14,1.83-.25,2.65-.35.55-.06,1.13-.13,1.71-.15a53.25,53.25,0,0,0,7.41-.74,27.44,27.44,0,0,1,2.8-.13c1.47-.06,3-.09,4.4-.18,2.3-.15,3.2.12,2.76.81a14,14,0,0,0-.77,1.61c-1.11,0-1.84.31-1.55.82l-8,.21.17-.09a7.83,7.83,0,0,0-1.19-.18c-2.7,0-5.4,0-8.1,0-.36,0-.73,0-1.07,0-1.39-.09-1.79-.07-1.63.26.28.62-1.27.69-2.35.84-2.85.42-5.92.63-9,.87-2.44.2-5,.17-7.37.49a13.77,13.77,0,0,1-1.56,0c-2.15,0-4.21-.36-6.44-.15a2.76,2.76,0,0,1-1.15-.25,2.35,2.35,0,0,1-.57-.76l-1.53-.12.49-.24c-1.25.07-2.3.17-3.34.16s-2-.16-3.19-.25l-.19.37-2.5-.06.55-.12c0-.32-.31-.61,0-.81a5.76,5.76,0,0,1,1.86-.3c.72,0,1,0,1.24-.29a6.4,6.4,0,0,1,1.71-.51c1.47-.41,1-1,1.08-1.47a2.09,2.09,0,0,0-.09-.61l-1.23-.23,2-.34-.12.32a5.52,5.52,0,0,0,.91,0,22.54,22.54,0,0,0,2.78-1.13c1-.55-1.16-1.22-2.82-1.29-2.1-.08-4.24,0-6.36-.05a24.37,24.37,0,0,1-2.67-.11l4.26-.22s0-.1,0-.14c-.47,0-.94-.07-1.41-.07a4.89,4.89,0,0,1-2.2-.32,6,6,0,0,0-2.6-.25c-1.44.06-3.43.33-4.46-.25-.39-.22-.06-.56-.06-.83ZM322,218.83l1.81,0,0,0-1.35.15a13,13,0,0,0,1.75.14c.77-.1,1.45-.27,2.16-.42A9.48,9.48,0,0,0,322,218.83Zm-21.15-9.27,6.25.31.31-.16a2.26,2.26,0,0,0-.84-.37c-.94,0-1.91,0-2.86,0-.57,0-1.13.07-1.7.08a9.64,9.64,0,0,1-1-.1ZM296.92,183a4.34,4.34,0,0,0-1.25.17c-1.88.59-1,1.61,1.3,2.05,2.5.48,5.18.24,7.76.35.68,0,1.39,0,2.09,0l.23-.18-6.55-1.83-.4.1.4-.44C299.23,183.1,298.09,183,296.92,183Zm36.22-2.59a2.58,2.58,0,0,0,2-.37,6.67,6.67,0,0,1,1.81-.93,5.23,5.23,0,0,1,1.7-.11c1.94.5,3.89.11,5.47.13-.37-.37-.71-.69-1-1s-.59-.71-.89-1.08a33.56,33.56,0,0,1-3.49,0,17.94,17.94,0,0,0-4,.26c-2,.2-4,.33-6.24.51a5,5,0,0,0-.75.63c-.1.12,0,.28.22.39.64.33,1.83.62,2,1C330.22,180.46,332,180.24,333.14,180.36Zm9.06,93.41a33.56,33.56,0,0,1-3.49,0,17.94,17.94,0,0,0-4,.26c-2,.2-4,.33-6.24.51a5,5,0,0,0-.75.63c-.1.12,0,.28.22.39.64.33,1.83.62,2,1,.31.7,2,.48,3.23.6a2.58,2.58,0,0,0,2-.37,6.67,6.67,0,0,1,1.81-.93,5.23,5.23,0,0,1,1.7-.11c1.94.5,3.89.11,5.47.13-.37-.37-.71-.69-1-1S342.5,274.14,342.2,273.77ZM292.32,262l1.94-2.07-.81-.14c2.41-.2,1.21-1.1,3.18-1.41l-1.91-.32c.63-.28,1.37-.49,1-.94s.9-.81,1.3-1.24c.16-.17-.16-.38-.08-.56s.26-.59.67-.63c1-.1,1.5-.81,3.1-.3a2.81,2.81,0,0,0,.76,0,38.8,38.8,0,0,1,7.73.1,49.1,49.1,0,0,0,5.32.13c2.1,0,4.17-.21,6.26-.25,2.42,0,4.85,0,7.28,0a8.81,8.81,0,0,0,1.39-.07,18,18,0,0,1,7.26.29,24.78,24.78,0,0,0,3.37.35l-.11-.19c.38-.24.59-.6,1.19-.68a9.6,9.6,0,0,1,3.72.19,31.36,31.36,0,0,0,3.68.41l-.37.8c3.83.13,2.28,1,2.12,1.7,1.47-.08,2.8-.22,4.11-.2a25.48,25.48,0,0,1,6,.43c.4.11,1.41,0,2,0a15.44,15.44,0,0,1,1.76.35l-1,.45c1.22.32,1.85.74.71,1.29-.26.13,0,.35,0,.53-.15.47-.66,1-3.06,1.09-1.25.06-2.72,1.12-2.28,1.62.64.73-1.21,1.42-3.65,1.38-1.36,0-2.72,0-4.08,0a1.75,1.75,0,0,0-.79.3,12.21,12.21,0,0,1-4.75.75,3,3,0,0,1-.79-.13c-1-.47-1-.47-2.39-.06.76.46,1.52.88,2.16,1.33.24.17.19.38.27.57-.92,0-1.85,0-2.77,0-.32,0-.62-.16-.92-.15q-5.73.11-11.45.24a4.07,4.07,0,0,0-.46.06s0,.11,0,.11c3,.05,6.09.11,9.14.14.93,0,1.87-.06,2.81-.07,1.86,0,2.39.16,2.15.91,1-.14,1.83-.25,2.65-.35.55-.06,1.13-.13,1.71-.15a53.25,53.25,0,0,0,7.41-.74,27.44,27.44,0,0,1,2.8-.13c1.47-.06,3-.09,4.4-.18,2.3-.15,3.2.12,2.76.81A14,14,0,0,0,364,269c-1.11,0-1.84.31-1.55.82l-8,.21.17-.09a7.83,7.83,0,0,0-1.19-.18c-2.7,0-5.4,0-8.1,0-.36,0-.73,0-1.07,0-1.39-.09-1.79-.07-1.63.26.28.62-1.27.69-2.35.84-2.85.42-5.92.63-9,.87-2.44.2-5,.17-7.37.49a13.77,13.77,0,0,1-1.56,0c-2.15,0-4.21-.36-6.44-.15a2.76,2.76,0,0,1-1.15-.25,2.35,2.35,0,0,1-.57-.76l-1.53-.12.49-.24c-1.25.07-2.3.17-3.34.16s-2-.16-3.19-.25l-.19.37L304,271l.55-.12c0-.32-.31-.61,0-.81a5.76,5.76,0,0,1,1.86-.3c.72,0,1,0,1.24-.29a6.4,6.4,0,0,1,1.71-.51c1.47-.41,1-1,1.08-1.47a2.09,2.09,0,0,0-.09-.61l-1.23-.23,2-.34-.12.32a5.52,5.52,0,0,0,.91,0,22.54,22.54,0,0,0,2.78-1.13c1-.55-1.16-1.22-2.82-1.29-2.1-.08-4.24,0-6.36-.05a24.37,24.37,0,0,1-2.67-.11l4.26-.22s0-.1,0-.14c-.47,0-.94-.07-1.41-.07a4.89,4.89,0,0,1-2.2-.32,6,6,0,0,0-2.6-.25c-1.44.06-3.43.33-4.46-.25-.39-.22-.06-.56-.06-.83ZM322,267.22l1.81,0,0,0-1.35.15a13,13,0,0,0,1.75.14c.77-.1,1.45-.27,2.16-.42A9.48,9.48,0,0,0,322,267.22ZM300.82,258l6.25.31.31-.16a2.26,2.26,0,0,0-.84-.37c-.94,0-1.91,0-2.86,0-.57,0-1.13.07-1.7.08a9.64,9.64,0,0,1-1-.1Zm-3.9-26.61a4.34,4.34,0,0,0-1.25.17c-1.88.59-1,1.61,1.3,2.05,2.5.48,5.18.24,7.76.35.68,0,1.39,0,2.09,0l.23-.18-6.55-1.83-.4.1.4-.44C299.23,231.49,298.09,231.39,296.92,231.34Zm21.63,49.72a10.06,10.06,0,0,1,1.49.6l4.52-.65a1.71,1.71,0,0,0,.59-.17c1-.71-1.41-1.62-3.9-1.62-2.74,0-5.51-.08-8.23-.19-1.14,0-1.76,0-2,.34a19.14,19.14,0,0,0-1.54,2.15c-.07.12.35.31.71.41,1.81.48,3.92.17,5.9.16,1.52,0,1.72-.2,1-.59-.22-.12,0-.3,0-.46A9.52,9.52,0,0,1,318.55,281.07ZM193.67,145.4c5.82-.21,12.49-.28,18.86-.22l9.19.17,4.2.15a47,47,0,0,1,5.36.55A48.68,48.68,0,0,1,242,149,44.28,44.28,0,0,1,253,155.67l-.53-.64a27.74,27.74,0,0,1,6.67,5.37,41,41,0,0,1,10.48,24.36c.07,1.49.13,3.64.12,5.22l-.1,4.48-.17,10-.8-1.83c-.13,19-1,11.3-1.7,10.52.07,7.26.13,13.88.2,20.37v3.82c0,1.34-.11,3.39-.25,5a40.83,40.83,0,0,1-2.5,10.19,38.16,38.16,0,0,1-11.27,15.78c-1.94,1.82-7.45,5.81-11.52,7.31a40.39,40.39,0,0,1-11.42,2.59,42.83,42.83,0,0,0,6.59-1.76,25.78,25.78,0,0,1-8.07.87c-1.11-.23-.26-.25,3.29-1.13,1.62-.38-.28-.31,0-.54a24.89,24.89,0,0,1,4-1.59,43.75,43.75,0,0,0,12.71-7c6.28-4.75,9.44-13.32,7.66-11.22-1.36,1.36-.47-.21.9-3.87a45.73,45.73,0,0,0,2-7,49.29,49.29,0,0,0,.66-9.18c0-6.72,0-13.49,0-20.18a34.63,34.63,0,0,0-.3-3.93c-.45-3.42-.77-16.13-.81-23.64,0-1.56-.26-3.54-.32-4.31a20.34,20.34,0,0,0-1.07-5.52A25.52,25.52,0,0,0,254,171.7a31.31,31.31,0,0,1,3.14,11.12c.07,1.28-.21,1-.32,1.48a30.91,30.91,0,0,0-5.4-13.06,30.29,30.29,0,0,0-2.91-3.74,31.57,31.57,0,0,0-12.41-7.82c-4.62-1.74-9.81-1.81-14.41-1.69l-28.34.13-2.3.06c.09,0,.13.11.23.11l22.61.08,11.31,0a32.48,32.48,0,0,1,11.37,2,30.77,30.77,0,0,1,11.86,7.76,24.61,24.61,0,0,1,5.21,7.83c.63,1.59.53,2,0,1.61a31.54,31.54,0,0,1,2.8,12.79c0,2.74.1,5.6.15,8.46.06,13.25.36,25,.74,36.68a33.79,33.79,0,0,1-2.14,14.11,32.14,32.14,0,0,1-15,16.6,27.53,27.53,0,0,1-12,3.25c-2.38,0-2.94-.23-1.83-.63a14.91,14.91,0,0,0,3.64-1.92c5.3-.87,8.28-2.86,6.87-2.71a28.94,28.94,0,0,0,13.7-12.36,29.47,29.47,0,0,0,3.11-8.66c.62-3,.44-6.1.46-9.44l.09.84.18-5.89,0-40a35.92,35.92,0,0,0-.55-5c-1.52-6.35-3-7.82-2.78-7.07.15,1.4-3.21-5-7.23-7.89a28,28,0,0,0-18.24-6.25l-22.61.37-9.17.11-4.59.06a26.85,26.85,0,0,0-4,.41,25.25,25.25,0,0,0-13.69,7.15,27.76,27.76,0,0,0-4.16,5.21,26.47,26.47,0,0,0-4,12.89c-.15,5-.13,10.49,0,16,0,1.43-.13,4.87-.25,5.68a13.71,13.71,0,0,1-.76,2.84c0,2.1-.07,4.6-.12,7.57l-.24-2.41c.06,6.17.11,11.41.16,16.56-.1,5.16.11,9.47,2.2,14.34l.71.63a27.54,27.54,0,0,0,6.77,8.84,24.51,24.51,0,0,1-1.91-1.61c-.15.35.59,1.43-.57.58a24.59,24.59,0,0,1-5.26-6.85c-1.53-3-1.83-4.46-2.36-5.33-.49-.62-1.46-5.06-1.56-8-.41-7.3-1-4.9-1.47-5.36-.18-.16-.36.24-.61.43,0,.46-.08,2.47-.19,6.1l-.37-10.08.32.58c0-1.54,0-3.88,0-4.5-.36-4.84-.72-10.13-1.13-13.77-.55-4.86-1.23,5.73-1.29,13.94q0,3.89,0,7.82c0,2.65-.08,5.1.14,8.22a34.37,34.37,0,0,0,6.06,16.61,36.42,36.42,0,0,0,10.9,10.1,34.28,34.28,0,0,1-15.3-17.86l-.13.06a33.24,33.24,0,0,0,3.54,7.21,43.13,43.13,0,0,0,8.41,9.23,30.31,30.31,0,0,0,13.52,6.26,39.81,39.81,0,0,0,6.67.63l6.12,0a100.61,100.61,0,0,1,10.27.37c1.91.22.31.56.31.83h20l-9.63,2.07,4,.14c-11.93.2-6,1.1-15.77,1.41l9.47.32c-3.11.28-6.8.49-5,.94,1.41.36-4.48.81-6.43,1.24-.79.17.81.38.38.56a7.5,7.5,0,0,1-3.31.63c-2.52,0-4.38.25-6.59.38-1.17.06-2.17.12-3.86.09a37,37,0,0,1-7.3-.87c-1-.12-3.71-.88-5.31-1.28a43.41,43.41,0,0,1-30.89-41.85c.15-8.32.15-17.6.12-26.39,0-5.19-.08-10.34-.12-15.5l0-3.87,0-1.93v-1l0-1.4a43.39,43.39,0,0,1,1.74-11.13c4.77-17,20.68-29.92,38.3-31.25l2.59-.14,1.32-.05h.91ZM151.9,251.88l-.85-1.88a27.29,27.29,0,0,0,1.72,5.31A39.47,39.47,0,0,0,164.62,270a40.55,40.55,0,0,0,9.81,5.55,46.59,46.59,0,0,0,6.47,2.09,7.16,7.16,0,0,0,.89,0A40.36,40.36,0,0,1,151.9,251.88Zm26.44-91.58c-4.1.91-12.65,6.23-16.43,14.7a33.35,33.35,0,0,1,5.42-7.47l.18-.12a33.48,33.48,0,0,0-4.17,5.46,33.67,33.67,0,0,1,5.85-6.59A32.37,32.37,0,0,1,178.34,160.3Zm-17.4,167.83c-1.18,0-2.84.07-3.75.17-5.64.59-3.15,1.61,3.9,2.05,7.5.48,15.53.24,23.28.35,2,0,4.17,0,6.26,0l.7-.18-19.65-1.83-1.21.1,1.2-.44C167.87,328.27,164.45,328.17,160.95,328.13Zm203.64,36.08a18,18,0,0,0-2.3,1.61c-3.33,0-5.51.31-4.66.82l-24,.21.51-.09c-1.19-.06-2.37-.18-3.57-.18q-12.14,0-24.29,0c-1.07,0-2.19,0-3.21,0-4.17-.09-5.36-.07-4.9.26.85.62-3.81.69-7,.84-8.55.42-17.76.63-26.94.87-7.32.2-15.11.17-22.12.49-1.35.06-3.12,0-4.69,0-6.46,0-12.62-.36-19.31-.15a23,23,0,0,1-3.44-.25,6,6,0,0,1-1.72-.76l-4.59-.12,1.46-.24c-3.74.07-6.91.17-10,.16s-6.14-.16-9.56-.25l-.58.37-7.51-.06,1.66-.12c-.1-.32-.93-.61,0-.81a49.65,49.65,0,0,1,5.58-.3c2.17,0,3.09,0,3.72-.29a50.82,50.82,0,0,1,5.12-.51c4.42-.41,3-1,3.25-1.47.1-.18-.14-.36-.26-.61l-3.68-.23,6.08-.34-.35.32c.94,0,2.35,0,2.73,0,2.93-.36,6.14-.72,8.34-1.13,2.95-.55-3.47-1.22-8.45-1.29-6.29-.08-12.72,0-19.09-.05-2.62,0-5.24,0-8-.11l12.78-.22s0-.1,0-.14c-1.41,0-2.83-.07-4.24-.07a42.1,42.1,0,0,1-6.59-.32,52.72,52.72,0,0,0-7.8-.25c-4.33.06-10.29.33-13.38-.25-1.16-.22-.19-.56-.19-.83H147.14l5.83-2.07-2.43-.14c7.23-.2,3.64-1.1,9.55-1.41l-5.74-.32c1.89-.28,4.12-.49,3-.94-.85-.36,2.72-.81,3.9-1.24.48-.17-.49-.38-.23-.56a3.12,3.12,0,0,1,2-.63c3.06-.1,4.49-.81,9.31-.3.42,0,1.59,0,2.27,0,7.87-.26,15.36-.15,23.18.1,5,.16,10.64.15,15.95.13,6.29,0,12.5-.21,18.78-.25,7.25,0,14.55,0,21.83,0,1.4,0,3,0,4.17-.07a159.68,159.68,0,0,1,21.77.29c2.35.23,6.68.24,10.11.35l-.34-.19a15.66,15.66,0,0,1,3.57-.68,85.41,85.41,0,0,1,11.15.19c2.65.23,7,.27,11,.41l-1.11.8c11.49.13,6.85,1,6.37,1.7,4.4-.08,8.41-.22,12.34-.2,6.14,0,12.67-.06,18,.43,1.19.11,4.21,0,6.13,0s3.53.23,5.27.35l-3.09.45c3.67.32,5.56.74,2.14,1.29-.78.13.1.35-.06.53-.44.47-2,1-9.19,1.09-3.76.06-8.15,1.12-6.83,1.62,1.92.73-3.63,1.42-11,1.38-4.07,0-8.17,0-12.23,0a12.94,12.94,0,0,0-2.38.3A105.08,105.08,0,0,1,306,362c-.86,0-2-.06-2.39-.13-2.93-.47-2.88-.47-7.16-.06,2.27.46,4.56.88,6.47,1.33.73.17.56.38.8.57-2.77,0-5.55,0-8.3,0-1,0-1.88-.16-2.76-.15q-17.18.11-34.35.24c-.48,0-.94,0-1.39.06.05,0,.08.11.14.11q13.7.08,27.41.14c2.8,0,5.61-.06,8.43-.07,5.57,0,7.16.16,6.44.91,3.09-.14,5.49-.25,8-.35,1.66-.06,3.39-.13,5.13-.15,8-.06,15.17-.36,22.22-.74,2.38-.13,5.59-.09,8.41-.13,4.41-.06,8.87-.09,13.21-.18C363.22,363.25,365.9,363.51,364.58,364.21Zm-172.26-9.32a15.92,15.92,0,0,0-2.52-.37c-2.81,0-5.73,0-8.59,0-1.71,0-3.4.07-5.11.08-1,0-2-.06-3.07-.1l-.39.2,18.74.31Zm57,9a84.23,84.23,0,0,0-13.23.11l5.44,0,.13,0-4.06.15c2.73.08,4.3.19,5.24.14C245.18,364.2,247.21,364,249.35,363.89Zm20.27-38.35a21.11,21.11,0,0,0,5.94-.37,43.59,43.59,0,0,1,5.43-.93,46.49,46.49,0,0,1,5.09-.11c5.82.5,11.66.11,16.4.13-1.1-.37-2.14-.69-3-1s-1.76-.71-2.66-1.08c-3.15,0-7.13.14-10.48,0-4.86-.15-8.08.12-12,.26-5.9.2-12.05.33-18.71.51a22.9,22.9,0,0,0-2.26.63c-.29.12,0,.28.67.39,1.93.33,5.49.62,5.94,1C260.84,325.64,266.06,325.42,269.61,325.54Zm-43.78,3.92c1.93.18,3.23.43,4.46.6l13.55-.65a13.67,13.67,0,0,0,1.76-.17c2.93-.71-4.23-1.62-11.7-1.62-8.23,0-16.52-.08-24.69-.19-3.43,0-5.27,0-6,.34a45.64,45.64,0,0,0-4.63,2.15c-.22.12,1,.31,2.14.41,5.44.48,11.76.17,17.69.16,4.56,0,5.15-.2,3-.59-.65-.12-.12-.3-.13-.46C222.82,329.44,224.95,329.38,225.84,329.46Zm71.09-49.72a4.34,4.34,0,0,0-1.25.17c-1.88.59-1,1.61,1.3,2.05,2.5.48,5.18.24,7.76.35.68,0,1.39,0,2.09,0l.23-.18-6.55-1.83-.4.1.4-.44C299.23,279.88,298.09,279.78,296.92,279.74Zm67.66,36.08a18,18,0,0,0-2.3,1.61c-3.33,0-5.51.31-4.66.82l-24,.21.51-.09c-1.19-.06-2.37-.18-3.57-.18q-12.14,0-24.29,0c-1.07,0-2.19,0-3.21,0-4.17-.09-5.36-.07-4.9.26.85.62-3.81.69-7,.84-8.55.42-17.76.63-26.94.87-7.32.2-15.11.17-22.12.49-1.35.06-3.12,0-4.69,0-6.46,0-12.62-.36-19.31-.15a23,23,0,0,1-3.44-.25,6,6,0,0,1-1.72-.76l-4.59-.12,1.46-.24c-3.74.07-6.91.17-10,.16s-6.14-.16-9.56-.25l-.58.37-7.51-.06,1.66-.12c-.1-.32-.93-.61,0-.81a49.65,49.65,0,0,1,5.58-.3c2.17,0,3.09,0,3.72-.29a50.82,50.82,0,0,1,5.12-.51c4.42-.41,3-1,3.25-1.47.1-.18-.14-.36-.26-.61l-3.68-.23,6.08-.34-.35.32c.94,0,2.35,0,2.73,0,2.93-.36,6.14-.72,8.34-1.13,2.95-.55-3.47-1.22-8.45-1.29-6.29-.08-12.72,0-19.09-.05-2.62,0-5.24,0-8-.11l12.78-.22s0-.1,0-.14c-1.41,0-2.83-.07-4.24-.07a42.1,42.1,0,0,1-6.59-.32,52.72,52.72,0,0,0-7.8-.25c-4.33.06-10.29.33-13.38-.25-1.16-.22-.19-.56-.19-.83H147.14l5.83-2.07-2.43-.14c7.23-.2,3.64-1.1,9.55-1.41l-5.74-.32c1.89-.28,4.12-.49,3-.94-.85-.36,2.72-.81,3.9-1.24.48-.17-.49-.38-.23-.56a3.12,3.12,0,0,1,2-.63c3.06-.1,4.49-.81,9.31-.3.42,0,1.59,0,2.27,0,7.87-.26,15.36-.15,23.18.1,5,.16,10.64.15,15.95.13,6.29,0,12.5-.21,18.78-.25,7.25,0,14.55,0,21.83,0,1.4,0,3,0,4.17-.07a159.68,159.68,0,0,1,21.77.29c2.35.23,6.68.24,10.11.35l-.34-.19a15.66,15.66,0,0,1,3.57-.68,85.41,85.41,0,0,1,11.15.19c2.65.23,7,.27,11,.41l-1.11.8c11.49.13,6.85,1,6.37,1.7,4.4-.08,8.41-.22,12.34-.2,6.14,0,12.67-.06,18,.43,1.19.11,4.21,0,6.13,0s3.53.23,5.27.35l-3.09.45c3.67.32,5.56.74,2.14,1.29-.78.13.1.35-.06.53-.44.47-2,1-9.19,1.09-3.76.06-8.15,1.12-6.83,1.62,1.92.73-3.63,1.42-11,1.38-4.07,0-8.17,0-12.23,0a12.94,12.94,0,0,0-2.38.3,105.08,105.08,0,0,1-14.25.75c-.86,0-2-.06-2.39-.13-2.93-.47-2.88-.47-7.16-.06,2.27.46,4.56.88,6.47,1.33.73.17.56.38.8.57-2.77,0-5.55,0-8.3,0-1,0-1.88-.16-2.76-.15q-17.18.11-34.35.24c-.48,0-.94,0-1.39.06.05,0,.08.11.14.11q13.7.08,27.41.14c2.8,0,5.61-.06,8.43-.07,5.57,0,7.16.16,6.44.91,3.09-.14,5.49-.25,8-.35,1.66-.06,3.39-.13,5.13-.15,8-.06,15.17-.36,22.22-.74,2.38-.13,5.59-.09,8.41-.13,4.41-.06,8.87-.09,13.21-.18C363.22,314.86,365.9,315.12,364.58,315.81Zm-172.26-9.32a15.92,15.92,0,0,0-2.52-.37c-2.81,0-5.73,0-8.59,0-1.71,0-3.4.07-5.11.08-1,0-2-.06-3.07-.1l-.39.2,18.74.31Zm57,9a84.23,84.23,0,0,0-13.23.11l5.44,0,.13,0-4.06.15c2.73.08,4.3.19,5.24.14C245.18,315.81,247.21,315.64,249.35,315.5Zm40.68-199-21.75,0c-10.09-.15-16.78.12-25,.26l-38.85.51-4.76.61c-.78.08.25.31,1.46.4,4,.33,11.4.62,12.32,1,1.91.7,12.74.48,20.13.6a90.08,90.08,0,0,0,12.33-.37c2.58-.33,6.61-.65,11.27-.93,1.9-.11,8.75-.18,10.57-.11,12.08.5,24.22.11,34,.13l-6.29-1Z"/></svg>